<svg xmlns="http://www.w3.org/2000/svg" width="200" height="38" viewBox="0 0 200 38">
  <g id="Group_3303" data-name="Group 3303" transform="translate(-461 -88)">
    <rect id="Rectangle_1794" data-name="Rectangle 1794" width="200" height="38" transform="translate(461 88)" fill="none"/>
    <path id="Path_4952" data-name="Path 4952" d="M16.945-27.339q6.218,0,9.652,2.993t3.434,8.423q0,5.754-3.434,8.933T16.945-3.811h-5.8v9H2.652V-27.339Zm-.418,16.753a5.723,5.723,0,0,0,4.014-1.3,4.847,4.847,0,0,0,1.415-3.759,4.652,4.652,0,0,0-1.415-3.643,5.79,5.79,0,0,0-4.014-1.276H11.144v9.977Zm29.329-9.606a15.5,15.5,0,0,1,7.193,1.6,11.7,11.7,0,0,1,4.826,4.5,12.913,12.913,0,0,1,1.717,6.706A13,13,0,0,1,57.875-.632a11.7,11.7,0,0,1-4.826,4.5,15.5,15.5,0,0,1-7.193,1.6,15.5,15.5,0,0,1-7.193-1.6,11.546,11.546,0,0,1-4.8-4.5,13.144,13.144,0,0,1-1.694-6.752A13.051,13.051,0,0,1,33.86-14.09a11.546,11.546,0,0,1,4.8-4.5A15.5,15.5,0,0,1,45.856-20.192Zm0,6.682a4.9,4.9,0,0,0-3.9,1.717,6.637,6.637,0,0,0-1.485,4.5,6.708,6.708,0,0,0,1.485,4.548,4.9,4.9,0,0,0,3.9,1.717A4.956,4.956,0,0,0,49.8-2.744a6.708,6.708,0,0,0,1.485-4.548,6.572,6.572,0,0,0-1.508-4.5A4.974,4.974,0,0,0,45.856-13.51Zm34.712,1.531q-4.873-2.552-7.982-2.552a3.281,3.281,0,0,0-1.717.394,1.3,1.3,0,0,0-.65,1.183,1.526,1.526,0,0,0,1.021,1.346,18.9,18.9,0,0,0,3.248,1.114,40.575,40.575,0,0,1,4.478,1.555,8.187,8.187,0,0,1,3.086,2.32,6.121,6.121,0,0,1,1.3,4.061,6.982,6.982,0,0,1-2.947,5.963,12.687,12.687,0,0,1-7.68,2.158,20.6,20.6,0,0,1-6.126-.9A16.222,16.222,0,0,1,61.4,1.99L64-3.347a18.333,18.333,0,0,0,4.478,2.3,13.551,13.551,0,0,0,4.432.812,4.011,4.011,0,0,0,1.926-.394,1.238,1.238,0,0,0,.719-1.137,1.578,1.578,0,0,0-1.044-1.439A19.824,19.824,0,0,0,71.24-4.322a36.712,36.712,0,0,1-4.362-1.555,8.235,8.235,0,0,1-2.993-2.3,6.027,6.027,0,0,1-1.276-3.991,7.039,7.039,0,0,1,2.877-5.963,12.047,12.047,0,0,1,7.425-2.158,20.078,20.078,0,0,1,5.406.742,19.939,19.939,0,0,1,5.035,2.181ZM104.142,3.892a12.435,12.435,0,0,1-3.2,1.23,15.436,15.436,0,0,1-3.666.441,8.475,8.475,0,0,1-6.01-2.135,7.65,7.65,0,0,1-2.3-5.894V-13.232h-3.48v-5.476h3.48v-6.961h8.214v6.961h6.5v5.476h-6.5v9.467q0,2.645,2.181,2.645a8.054,8.054,0,0,0,3.2-.835ZM119.41-20.239q5.2,0,8.075,2.39a8.36,8.36,0,0,1,2.924,6.706V5.192h-8.121V2.361q-2.506,3.2-7.564,3.2a8.817,8.817,0,0,1-6.288-2.158,7.436,7.436,0,0,1-2.3-5.685,6.744,6.744,0,0,1,2.483-5.569q2.483-2,7.123-2.042h6.543v-.278a3.345,3.345,0,0,0-1.23-2.784,5.609,5.609,0,0,0-3.55-.975,14.318,14.318,0,0,0-3.55.51,21.085,21.085,0,0,0-3.968,1.485L107.716-17.5a32.633,32.633,0,0,1,5.87-2.065A24.9,24.9,0,0,1,119.41-20.239ZM117.275-.052a5.827,5.827,0,0,0,3.248-.9A3.922,3.922,0,0,0,122.287-3.3V-5.482h-4.919q-3.48,0-3.48,2.6a2.566,2.566,0,0,0,.9,2.065A3.723,3.723,0,0,0,117.275-.052Zm21.208-2.413a3.894,3.894,0,0,1,2.877,1.114,3.894,3.894,0,0,1,1.114,2.877,3.972,3.972,0,0,1-1.114,2.9,3.851,3.851,0,0,1-2.877,1.137,3.794,3.794,0,0,1-2.831-1.137,3.972,3.972,0,0,1-1.114-2.9,3.939,3.939,0,0,1,1.091-2.877A3.816,3.816,0,0,1,138.483-2.465Z" transform="translate(460.314 117.315)" fill="#fff"/>
    <path id="Path_4951" data-name="Path 4951" d="M14.286-21.372q5.2,0,8.075,2.39a8.36,8.36,0,0,1,2.924,6.706V4.059H17.163V1.228Q14.657,4.43,9.6,4.43A8.817,8.817,0,0,1,3.311,2.272a7.436,7.436,0,0,1-2.3-5.685A6.744,6.744,0,0,1,3.5-8.982q2.483-2,7.123-2.042h6.543V-11.3a3.345,3.345,0,0,0-1.23-2.784,5.609,5.609,0,0,0-3.55-.975,14.317,14.317,0,0,0-3.55.51,21.085,21.085,0,0,0-3.968,1.485L2.592-18.634A32.633,32.633,0,0,1,8.462-20.7,24.9,24.9,0,0,1,14.286-21.372ZM12.151-1.185a5.826,5.826,0,0,0,3.248-.9,3.922,3.922,0,0,0,1.763-2.344V-6.615H12.244q-3.48,0-3.48,2.6a2.566,2.566,0,0,0,.9,2.065A3.723,3.723,0,0,0,12.151-1.185ZM29.507-21.047,51.5-21v5.012L39.438-2.253h12.53V4.059H29.09V-.953L41.155-14.69H29.507Z" transform="translate(607.55 118.449)" fill="#d62923"/>
  </g>
</svg>
