<svg xmlns="http://www.w3.org/2000/svg" width="38" height="38" viewBox="0 0 38 38">
  <g id="Group_3252" data-name="Group 3252" transform="translate(-1189 -430)">
    <g id="Ellipse_6" data-name="Ellipse 6" transform="translate(1189 430)" fill="none" stroke="#fff" stroke-width="2">
      <circle cx="19" cy="19" r="19" stroke="none"/>
      <circle cx="19" cy="19" r="18" fill="none"/>
    </g>
    <g id="play" transform="translate(-120.552 -435.552)">
      <rect id="Rectangle_1867" data-name="Rectangle 1867" width="14" height="14" transform="translate(1321.552 877.552)" fill="none"/>
      <path id="_211876_play_icon" data-name="211876_play_icon" d="M105.686,69.291,96.965,64.1a.658.658,0,0,0-.341-.1.625.625,0,0,0-.62.626h0V75.4h0a.625.625,0,0,0,.62.626.716.716,0,0,0,.351-.107l8.711-5.184a.943.943,0,0,0,0-1.447Z" transform="translate(1227.54 814.538)" fill="#fff"/>
    </g>
  </g>
</svg>
